<?xml version="1.0" encoding="utf-8"?>
<!-- Generator: Adobe Illustrator 20.0.0, SVG Export Plug-In . SVG Version: 6.00 Build 0)  -->
<svg version="1.1" id="Layer_1" xmlns="http://www.w3.org/2000/svg" xmlns:xlink="http://www.w3.org/1999/xlink" x="0px" y="0px"
	 viewBox="0 0 630 630" style="enable-background:new 0 0 630 630;" xml:space="preserve">
<style type="text/css">
	.st0{fill:#7DA1C4;}
	.st1{fill:#5C6670;}
	.st2{fill:#527DA0;}
	.st3{fill:#414B54;}
	.st4{fill:#E1E000;}
	.st5{fill:#FFFFFF;}
</style>
<g>
	<path class="st0" d="M241,102.7c48.4,9.7,74.1,40.6,74.1,40.6l171.7,171.8c0,0,30.9-25.7,40.6-74.1
		c10.4-52.2-27.3-103.9-27.3-103.9L397,34c-45.3-45.3-118.7-45.3-163.9,0l-96,96C137.1,130,188.8,92.3,241,102.7z"/>
	<path class="st1" d="M389.1,527.4c-48.4-9.7-74.1-40.6-74.1-40.6L143.3,315.1c0,0-30.9,25.7-40.6,74.1C92.3,441.4,130,493,130,493
		l103.1,103.1c45.3,45.3,118.7,45.3,163.9,0l95.9-95.9C493,500.1,441.3,537.8,389.1,527.4z"/>
	<path class="st2" d="M596.1,233.1l-96-96c0,0,37.7,51.7,27.3,103.8c-9.7,48.4-40.6,74.1-40.6,74.1L315.1,486.8
		c0,0,25.7,30.9,74.1,40.6c52.2,10.4,103.8-27.3,103.8-27.3L596.1,397C641.3,351.7,641.3,278.4,596.1,233.1z"/>
	<path class="st3" d="M102.7,389.1c9.7-48.4,40.6-74.1,40.6-74.1l171.8-171.7c0,0-25.7-30.9-74.1-40.6
		C188.8,92.3,137.1,130,137.1,130L34,233.1c-45.3,45.3-45.3,118.7,0,163.9l95.9,95.9C130,493,92.3,441.3,102.7,389.1z"/>
</g>
<g>
	<g>
		<path class="st4" d="M465.1,450.8l-23.6,7.2c-1.3,0.4-2.6-0.8-2.2-2.2l7.2-23.6c0.4-1.2,1.9-1.6,2.9-0.7l16.3,16.3
			C466.7,448.9,466.3,450.4,465.1,450.8z"/>
		<path class="st4" d="M448.2,427.9c1.3,0,2.6,0.5,3.5,1.5l16.3,16.3c1.2,1.2,1.7,3,1.3,4.7s-1.7,3-3.4,3.5l-23.6,7.2
			c-0.5,0.1-1,0.2-1.5,0.2c-1.6,0-3.1-0.8-4-2c-0.9-1.3-1.2-2.9-0.8-4.4l7.2-23.6C444.1,429.3,446,427.9,448.2,427.9 M448.2,426.9
			c-2.6,0-4.9,1.7-5.7,4.2l-7.2,23.6c-0.6,1.8-0.2,3.8,0.9,5.3s2.9,2.4,4.8,2.4c0.6,0,1.2-0.1,1.8-0.3l23.6-7.2c2-0.6,3.5-2.2,4-4.3
			c0.5-2-0.1-4.2-1.6-5.7l-16.3-16.3C451.3,427.5,449.8,426.9,448.2,426.9L448.2,426.9z"/>
	</g>
</g>
<g>
	<g>
		<path class="st4" d="M165,179.3l23.6-7.2c1.3-0.4,2.6,0.8,2.2,2.2l-7.2,23.6c-0.4,1.2-1.9,1.6-2.9,0.7l-16.3-16.3
			C163.4,181.2,163.8,179.7,165,179.3z"/>
		<path class="st4" d="M189.1,168.7c1.6,0,3.1,0.8,4,2c0.9,1.3,1.2,2.9,0.8,4.4l-7.2,23.6c-0.6,2.1-2.6,3.5-4.8,3.5
			c-1.3,0-2.6-0.5-3.5-1.5l-16.3-16.3c-1.2-1.2-1.7-3-1.3-4.7s1.7-3,3.4-3.5l23.6-7.2C188.1,168.8,188.6,168.7,189.1,168.7
			 M189.1,167.7c-0.6,0-1.2,0.1-1.8,0.3l-23.6,7.2c-2,0.6-3.5,2.2-4,4.3c-0.5,2,0.1,4.2,1.6,5.7l16.3,16.3c1.1,1.1,2.6,1.7,4.2,1.7
			c2.6,0,4.9-1.7,5.7-4.2l7.2-23.6c0.6-1.8,0.2-3.8-0.9-5.3C192.8,168.7,191,167.7,189.1,167.7L189.1,167.7z"/>
	</g>
</g>
<g>
	<g>
		<path class="st4" d="M449.6,166.2l7.2,23.6c0.4,1.3-0.8,2.6-2.2,2.2l-23.6-7.2c-1.2-0.4-1.6-1.9-0.7-2.9l16.3-16.3
			C447.7,164.6,449.2,165,449.6,166.2z"/>
		<path class="st4" d="M448,161.8c2.2,0,4.1,1.4,4.8,3.5l7.2,23.6c0.5,1.5,0.2,3.1-0.8,4.4c-0.9,1.3-2.4,2-4,2c-0.5,0-1-0.1-1.5-0.2
			l-23.6-7.2c-1.7-0.5-2.9-1.8-3.4-3.5c-0.4-1.7,0.1-3.5,1.3-4.7l16.3-16.3C445.4,162.3,446.6,161.8,448,161.8 M448,160.8
			c-1.6,0-3.1,0.6-4.2,1.7l-16.3,16.3c-1.5,1.5-2.1,3.6-1.6,5.7c0.5,2,2,3.6,4,4.3l23.6,7.2c0.6,0.2,1.2,0.3,1.8,0.3
			c1.9,0,3.7-0.9,4.8-2.4c1.1-1.5,1.5-3.5,0.9-5.3l-7.2-23.6C452.9,162.5,450.6,160.8,448,160.8L448,160.8z"/>
	</g>
</g>
<g>
	<g>
		<path class="st4" d="M180.5,463.9l-7.2-23.6c-0.4-1.3,0.8-2.6,2.2-2.2l23.6,7.2c1.2,0.4,1.6,1.9,0.7,2.9l-16.3,16.3
			C182.4,465.5,180.9,465.1,180.5,463.9z"/>
		<path class="st4" d="M174.9,434.8c0.5,0,1,0.1,1.5,0.2l23.6,7.2c1.7,0.5,2.9,1.8,3.4,3.5c0.4,1.7-0.1,3.5-1.3,4.7l-16.3,16.3
			c-0.9,0.9-2.2,1.5-3.5,1.5c-2.2,0-4.1-1.4-4.8-3.5l-7.2-23.6c-0.5-1.5-0.2-3.1,0.8-4.4C171.8,435.6,173.3,434.8,174.9,434.8
			 M174.9,433.8c-1.9,0-3.7,0.9-4.8,2.4s-1.5,3.5-0.9,5.3l7.2,23.6c0.8,2.5,3.1,4.2,5.7,4.2c1.6,0,3.1-0.6,4.2-1.7l16.3-16.3
			c1.5-1.5,2.1-3.6,1.6-5.7c-0.5-2-2-3.6-4-4.3l-23.6-7.2C176.1,433.9,175.5,433.8,174.9,433.8L174.9,433.8z"/>
	</g>
</g>
<g>
	<path class="st4" d="M227,295.4h13.2c7.8,0,12.8,4,12.8,10.8v0.1c0,7.3-5.6,11.1-13.2,11.1h-4.2v8.8H227V295.4z M239.6,310.7
		c3,0,4.9-1.6,4.9-4v-0.1c0-2.6-1.8-4-4.9-4h-4v8.1H239.6z"/>
	<path class="st4" d="M256.6,295.4h24.8v7.3h-16.3v4.7h14.8v6.7h-14.8v4.9h16.5v7.3h-25V295.4z"/>
	<path class="st4" d="M284.7,310.9L284.7,310.9c0-8.9,7.1-16.1,16.6-16.1s16.5,7.1,16.5,15.9v0.1c0,8.8-7.1,16-16.6,16
		S284.7,319.7,284.7,310.9z M309.2,310.9L309.2,310.9c0-4.5-3.2-8.4-7.9-8.4c-4.7,0-7.8,3.8-7.8,8.2v0.1c0,4.4,3.2,8.3,7.9,8.3
		C306.1,319.1,309.2,315.3,309.2,310.9z"/>
	<path class="st4" d="M322.3,295.4h13.2c7.8,0,12.8,4,12.8,10.8v0.1c0,7.3-5.6,11.1-13.2,11.1h-4.2v8.8h-8.5V295.4z M334.9,310.7
		c3,0,4.9-1.6,4.9-4v-0.1c0-2.6-1.8-4-4.9-4h-4v8.1H334.9z"/>
	<path class="st4" d="M352,295.4h8.5v23.3h14.9v7.5H352V295.4z"/>
	<path class="st4" d="M379.1,295.4h24.8v7.3h-16.3v4.7h14.8v6.7h-14.8v4.9H404v7.3h-25V295.4z"/>
</g>
<g>
	<path class="st5" d="M219.3,546.2h-5.9v-4.8h17.2v4.8h-5.9V561h-5.4V546.2z"/>
	<path class="st5" d="M233,541.4h15.8v4.6h-10.4v3h9.4v4.3h-9.4v3.1h10.5v4.6H233V541.4z"/>
	<path class="st5" d="M250.9,551.3L250.9,551.3c0-5.8,4.4-10.2,10.3-10.2c4,0,6.6,1.7,8.3,4.1l-4.1,3.2c-1.1-1.4-2.4-2.3-4.3-2.3
		c-2.7,0-4.7,2.3-4.7,5.2v0.1c0,2.9,1.9,5.2,4.7,5.2c2,0,3.2-1,4.4-2.4l4.1,2.9c-1.8,2.5-4.3,4.4-8.7,4.4
		C255.4,561.4,250.9,557.1,250.9,551.3z"/>
	<path class="st5" d="M272,541.4h5.4v7.3h7v-7.3h5.4V561h-5.4v-7.4h-7v7.4H272V541.4z"/>
	<path class="st5" d="M293.3,541.4h5.1l8.1,10.4v-10.4h5.4V561H307l-8.4-10.8V561h-5.4V541.4z"/>
	<path class="st5" d="M314.6,551.3L314.6,551.3c0-5.7,4.5-10.2,10.6-10.2c6,0,10.5,4.5,10.5,10.1v0.1c0,5.6-4.5,10.2-10.6,10.2
		S314.6,556.9,314.6,551.3z M330.2,551.3L330.2,551.3c0-2.9-2-5.3-5-5.3c-3,0-5,2.4-5,5.2v0.1c0,2.8,2,5.3,5,5.3
		C328.2,556.5,330.2,554.1,330.2,551.3z"/>
	<path class="st5" d="M338.5,541.4h5.4v14.8h9.5v4.8h-14.9V541.4z"/>
	<path class="st5" d="M354,551.3L354,551.3c0-5.7,4.5-10.2,10.6-10.2c6,0,10.5,4.5,10.5,10.1v0.1c0,5.6-4.5,10.2-10.6,10.2
		S354,556.9,354,551.3z M369.6,551.3L369.6,551.3c0-2.9-2-5.3-5-5.3c-3,0-5,2.4-5,5.2v0.1c0,2.8,2,5.3,5,5.3
		C367.6,556.5,369.6,554.1,369.6,551.3z"/>
	<path class="st5" d="M377.3,551.3L377.3,551.3c0-5.8,4.5-10.2,10.6-10.2c3.4,0,5.9,1.1,8,2.9l-3.2,3.8c-1.4-1.2-2.8-1.8-4.7-1.8
		c-2.8,0-5,2.4-5,5.4v0.1c0,3.2,2.2,5.4,5.3,5.4c1.3,0,2.3-0.3,3.1-0.8v-2.4h-3.9v-4h9v8.8c-2.1,1.7-5,3-8.5,3
		C381.8,561.4,377.3,557.2,377.3,551.3z"/>
	<path class="st5" d="M404.3,553.7l-7.4-12.3h6.2l4,7.1l4.1-7.1h6.1l-7.4,12.2v7.4h-5.5V553.7z"/>
</g>
<g>
	<path class="st5" d="M229.8,69.9L229.8,69.9c0-7.4,5.7-13.2,13.3-13.2c5.1,0,8.5,2.2,10.7,5.3l-5.3,4.1c-1.4-1.8-3.1-3-5.5-3
		c-3.5,0-6,3-6,6.7v0.1c0,3.8,2.5,6.7,6,6.7c2.6,0,4.2-1.2,5.7-3.1l5.3,3.7c-2.4,3.3-5.6,5.7-11.2,5.7
		C235.6,82.9,229.8,77.4,229.8,69.9z"/>
	<path class="st5" d="M256.6,71.4V57.2h7.1v14c0,3.6,1.8,5.4,4.6,5.4s4.6-1.7,4.6-5.2V57.2h7.1v14c0,8.1-4.6,11.7-11.8,11.7
		S256.6,79.2,256.6,71.4z"/>
	<path class="st5" d="M284.2,57.2h7v19.1h12.2v6.1h-19.2V57.2z"/>
	<path class="st5" d="M309,63.3h-7.6v-6.1h22.1v6.1H316v19.1h-7V63.3z"/>
	<path class="st5" d="M326.3,71.4V57.2h7.1v14c0,3.6,1.8,5.4,4.6,5.4s4.6-1.7,4.6-5.2V57.2h7.1v14c0,8.1-4.6,11.7-11.8,11.7
		S326.3,79.2,326.3,71.4z"/>
	<path class="st5" d="M353.9,57.2h11.9c3.9,0,6.5,1,8.2,2.7c1.5,1.4,2.2,3.4,2.2,5.9v0.1c0,3.9-2.1,6.4-5.2,7.7l6,8.8H369l-5.1-7.6
		h-0.1h-3v7.6h-7V57.2z M365.5,69.3c2.4,0,3.7-1.2,3.7-3v-0.1c0-2-1.4-3-3.8-3h-4.6v6H365.5z"/>
	<path class="st5" d="M379.7,57.2H400v5.9h-13.4V67h12.1v5.5h-12.1v4h13.5v5.9h-20.4V57.2z"/>
</g>
<g>
</g>
<g>
</g>
<g>
</g>
<g>
</g>
<g>
</g>
<g>
</g>
<g>
</g>
<g>
</g>
<g>
</g>
<g>
</g>
<g>
</g>
<g>
</g>
<g>
</g>
<g>
</g>
<g>
</g>
</svg>
